<svg width="229" height="77" viewBox="0 0 229 77" fill="none" xmlns="http://www.w3.org/2000/svg">
<g clip-path="url(#clip0_1_2)">
<mask id="mask0_1_2" style="mask-type:luminance" maskUnits="userSpaceOnUse" x="0" y="0" width="229" height="77">
<path d="M228.85 0H0V76.14H228.85V0Z" fill="white"/>
</mask>
<g mask="url(#mask0_1_2)">
<path d="M0 29.02H24.09V4.92999C11.26 5.93999 1.02 16.18 0 29.02Z" fill="#4D71B0"/>
<path d="M28.3 4.92999V29.02H52.39C51.37 16.18 41.14 5.93999 28.3 4.92999Z" fill="#7B99CA"/>
<path d="M24.09 57.32V33.23H0C1.02 46.07 11.25 56.31 24.09 57.32Z" fill="#054798"/>
<path d="M28.3 57.32C41.14 56.3 51.38 46.07 52.39 33.23H28.3V57.32Z" fill="#B3C2E5"/>
<path d="M167.37 31.13C167.37 45.65 154.86 57.42 139.42 57.42C123.98 57.42 111.47 45.65 111.47 31.13C111.47 16.61 123.98 4.84 139.42 4.84C154.86 4.84 167.37 16.61 167.37 31.13ZM139.42 18.58C132.94 18.58 127.68 24.2 127.68 31.13C127.68 38.06 132.94 43.68 139.42 43.68C145.9 43.68 151.16 38.06 151.16 31.13C151.16 24.2 145.9 18.58 139.42 18.58ZM106.5 39.65C103.9 42.13 100.19 43.68 96.06 43.68C88.21 43.68 81.84 38.06 81.84 31.13C81.84 24.2 88.21 18.58 96.06 18.58C100.19 18.58 103.9 20.13 106.5 22.61V8.04C102.52 6 97.97 4.84 93.12 4.84C77.69 4.84 65.17 16.61 65.17 31.13C65.17 45.65 77.68 57.42 93.12 57.42C97.97 57.42 102.53 56.26 106.5 54.22V39.66V39.65ZM187.68 25.41C188.8 19.87 193.1 15.75 198.22 15.75C203.34 15.75 207.64 19.87 208.77 25.41H187.68ZM209.35 38.98C206.62 43.1 203.31 45.22 198.23 45.22C192.8 45.22 188.3 40.59 187.52 34.55H223.8C223.94 33.43 224.02 32.29 224.02 31.13C224.02 16.61 212.47 4.84 198.23 4.84C183.99 4.84 172.44 16.61 172.44 31.13C172.44 45.65 183.99 57.42 198.23 57.42C209.28 57.42 217.08 53.15 222.37 45.4L209.36 38.99L209.35 38.98Z" fill="#054798"/>
<path d="M75.28 67.05C74.62 66.16 73.57 65.7 72.5 65.7C70.02 65.7 68.27 67.88 68.27 70.31C68.27 72.88 70.01 74.92 72.5 74.92C73.85 74.92 74.93 74.37 75.71 73.37L76.7 74.2C75.71 75.53 74.27 76.14 72.5 76.14C69.32 76.14 66.86 73.68 66.86 70.31C66.86 66.94 69.21 64.48 72.5 64.48C74 64.48 75.48 65 76.42 66.22L75.28 67.05Z" fill="#1D1D1B"/>
<path d="M78.22 69.46C78.97 68.69 80.07 68.33 81.14 68.33C83.31 68.33 84.21 69.36 84.21 71.43V74.58C84.21 75 84.26 75.47 84.32 75.85H83.14C83.06 75.52 83.06 75.07 83.06 74.75H83.03C82.54 75.5 81.73 76.04 80.62 76.04C79.13 76.04 77.89 75.29 77.89 73.86C77.89 71.43 80.71 71.29 82.51 71.29H82.98V71.07C82.98 70.01 82.31 69.46 81.16 69.46C80.37 69.46 79.56 69.73 78.98 70.26L78.21 69.46H78.22ZM81.76 72.33C80.21 72.33 79.2 72.75 79.2 73.74C79.2 74.67 79.89 75.01 80.82 75.01C82.23 75.01 82.95 73.99 82.98 72.8V72.33H81.76Z" fill="#1D1D1B"/>
<path d="M86.45 70.26C86.45 69.59 86.39 69 86.39 68.52H87.55C87.55 68.91 87.58 69.32 87.58 69.73H87.61C87.94 69.01 88.85 68.33 90.06 68.33C90.22 68.33 90.39 68.35 90.56 68.41L90.48 69.65C90.28 69.59 90.04 69.56 89.82 69.56C88.33 69.56 87.67 70.61 87.67 72.29V75.86H86.45V70.26Z" fill="#1D1D1B"/>
</g>
<path d="M93.3 64.01H92.08V75.86H93.3V64.01Z" fill="#1D1D1B"/>
<mask id="mask1_1_2" style="mask-type:luminance" maskUnits="userSpaceOnUse" x="0" y="0" width="229" height="77">
<path d="M228.85 0H0V76.14H228.85V0Z" fill="white"/>
</mask>
<g mask="url(#mask1_1_2)">
<path d="M99.67 70.31C99.67 66.96 102.1 64.48 105.47 64.48C108.84 64.48 111.27 66.96 111.27 70.31C111.27 73.66 108.84 76.14 105.47 76.14C102.1 76.14 99.67 73.66 99.67 70.31ZM109.86 70.31C109.86 67.75 108.07 65.7 105.47 65.7C102.87 65.7 101.08 67.75 101.08 70.31C101.08 72.87 102.87 74.92 105.47 74.92C108.07 74.92 109.86 72.87 109.86 70.31Z" fill="#1D1D1B"/>
<path d="M113.32 73.93C113.81 74.53 114.34 74.92 115.2 74.92C115.97 74.92 116.81 74.59 116.81 73.79C116.81 72.99 116.03 72.8 115.24 72.63C113.84 72.32 112.65 72.02 112.65 70.5C112.65 69.07 114.03 68.34 115.39 68.34C116.42 68.34 117.38 68.73 117.88 69.67L116.86 70.34C116.54 69.82 116.03 69.46 115.31 69.46C114.63 69.46 113.87 69.79 113.87 70.48C113.87 71.09 114.75 71.35 115.72 71.54C117.02 71.79 118.12 72.26 118.12 73.73C118.12 75.39 116.65 76.03 115.19 76.03C113.95 76.03 113.06 75.7 112.34 74.67L113.31 73.92L113.32 73.93Z" fill="#1D1D1B"/>
<path d="M123.86 69.55H121.7V73.22C121.7 74.16 121.72 74.91 122.8 74.91C123.16 74.91 123.56 74.83 123.88 74.66L123.93 75.77C123.51 75.96 122.96 76.04 122.5 76.04C120.76 76.04 120.48 75.1 120.48 73.58V69.55H118.88V68.52H120.48V66.43H121.7V68.52H123.86V69.55Z" fill="#1D1D1B"/>
<path d="M131.92 74.52C131.06 75.63 130.02 76.04 128.66 76.04C126.36 76.04 124.94 74.32 124.94 72.18C124.94 69.91 126.54 68.32 128.7 68.32C130.86 68.32 132.18 69.73 132.18 72.16V72.55H126.25C126.35 73.82 127.32 74.9 128.65 74.9C129.7 74.9 130.41 74.52 130.99 73.79L131.92 74.51V74.52ZM130.87 71.53C130.82 70.29 130.01 69.46 128.66 69.46C127.31 69.46 126.42 70.29 126.26 71.53H130.87Z" fill="#1D1D1B"/>
<path d="M134.08 70.26C134.08 69.59 134.02 69 134.02 68.52H135.18C135.18 68.91 135.21 69.32 135.21 69.73H135.24C135.57 69.01 136.48 68.33 137.69 68.33C137.85 68.33 138.02 68.35 138.19 68.41L138.11 69.65C137.91 69.59 137.67 69.56 137.45 69.56C135.96 69.56 135.3 70.61 135.3 72.29V75.86H134.08V70.26Z" fill="#1D1D1B"/>
<path d="M139.6 70.26C139.6 69.59 139.54 69 139.54 68.52H140.7C140.7 68.91 140.73 69.32 140.73 69.73H140.76C141.09 69.01 142 68.33 143.2 68.33C144.78 68.33 145.28 69.22 145.52 69.73C146.05 68.87 146.73 68.33 147.84 68.33C149.94 68.33 150.63 69.51 150.63 71.4V75.85H149.41V71.46C149.41 70.44 149.05 69.45 147.62 69.45C146.59 69.45 145.72 70.3 145.72 71.61V75.84H144.5V71.69C144.5 70.08 144.09 69.45 143.09 69.45C141.5 69.45 140.81 70.6 140.81 72.27V75.84H139.59V70.24L139.6 70.26Z" fill="#1D1D1B"/>
<path d="M152.86 69.46C153.61 68.69 154.71 68.33 155.78 68.33C157.94 68.33 158.85 69.36 158.85 71.43V74.58C158.85 75 158.9 75.47 158.96 75.85H157.79C157.71 75.52 157.71 75.07 157.71 74.75H157.68C157.2 75.5 156.38 76.04 155.27 76.04C153.78 76.04 152.54 75.29 152.54 73.86C152.54 71.43 155.36 71.29 157.17 71.29H157.64V71.07C157.64 70.01 156.97 69.46 155.82 69.46C155.04 69.46 154.22 69.73 153.64 70.26L152.87 69.46H152.86ZM156.41 72.33C154.86 72.33 153.85 72.75 153.85 73.74C153.85 74.67 154.54 75.01 155.47 75.01C156.88 75.01 157.6 73.99 157.63 72.8V72.33H156.41Z" fill="#1D1D1B"/>
<path d="M161.09 70.26C161.09 69.59 161.03 69 161.03 68.52H162.19C162.19 68.91 162.22 69.32 162.22 69.73H162.25C162.58 69.01 163.49 68.33 164.7 68.33C166.63 68.33 167.49 69.55 167.49 71.32V75.85H166.27V71.44C166.27 70.22 165.74 69.45 164.59 69.45C163.01 69.45 162.32 70.6 162.32 72.27V75.84H161.1V70.24L161.09 70.26Z" fill="#1D1D1B"/>
<path d="M169.81 70.26C169.81 69.59 169.75 69 169.75 68.52H170.91C170.91 68.91 170.94 69.32 170.94 69.73H170.97C171.3 69.01 172.21 68.33 173.42 68.33C175.35 68.33 176.21 69.55 176.21 71.32V75.85H174.99V71.44C174.99 70.22 174.46 69.45 173.31 69.45C171.73 69.45 171.04 70.6 171.04 72.27V75.84H169.82V70.24L169.81 70.26Z" fill="#1D1D1B"/>
</g>
<path d="M183.1 64.76V75.85H190.36V74.63H184.42V70.68H189.7V69.46H184.42V65.98H190.08V64.76H183.1Z" fill="#1D1D1B"/>
<mask id="mask2_1_2" style="mask-type:luminance" maskUnits="userSpaceOnUse" x="0" y="0" width="229" height="77">
<path d="M228.85 0H0V76.14H228.85V0Z" fill="white"/>
</mask>
<g mask="url(#mask2_1_2)">
<path d="M192.18 70.26C192.18 69.59 192.12 69 192.12 68.52H193.28C193.28 68.91 193.31 69.32 193.31 69.73H193.34C193.67 69.01 194.58 68.33 195.79 68.33C195.94 68.33 196.12 68.35 196.29 68.41L196.21 69.65C196.01 69.59 195.77 69.56 195.55 69.56C194.06 69.56 193.4 70.61 193.4 72.29V75.86H192.18V70.26Z" fill="#1D1D1B"/>
<path d="M197.63 64H198.85V69.58H198.88C199.55 68.8 200.45 68.33 201.51 68.33C203.82 68.33 205.37 69.96 205.37 72.19C205.37 74.42 203.75 76.05 201.7 76.05C200.39 76.05 199.34 75.39 198.88 74.56H198.85V75.86H197.63V64.01V64ZM201.46 74.91C203.04 74.91 204.06 73.72 204.06 72.18C204.06 70.64 203.04 69.45 201.46 69.45C199.88 69.45 198.85 70.64 198.85 72.18C198.85 73.72 199.87 74.91 201.46 74.91Z" fill="#1D1D1B"/>
<path d="M213.83 74.52C212.97 75.63 211.93 76.04 210.57 76.04C208.27 76.04 206.85 74.32 206.85 72.18C206.85 69.91 208.45 68.32 210.61 68.32C212.77 68.32 214.09 69.73 214.09 72.16V72.55H208.16C208.26 73.82 209.23 74.9 210.56 74.9C211.61 74.9 212.32 74.52 212.9 73.79L213.83 74.51V74.52ZM212.78 71.53C212.73 70.29 211.92 69.46 210.57 69.46C209.22 69.46 208.33 70.29 208.17 71.53H212.78Z" fill="#1D1D1B"/>
<path d="M216 70.26C216 69.59 215.93 69 215.93 68.52H217.25C217.25 68.91 217.29 69.32 217.29 69.73H217.32C217.7 69.01 218.73 68.33 220.1 68.33C222.29 68.33 223.27 69.55 223.27 71.32V75.85H221.88V71.44C221.88 70.22 221.27 69.45 219.97 69.45C218.17 69.45 217.38 70.6 217.38 72.27V75.84H215.99V70.24L216 70.26Z" fill="#1D1D1B"/>
<path d="M227.84 4.84C227.84 6.95 226.12 8.67 224.01 8.67C221.9 8.67 220.18 6.95 220.18 4.84C220.18 2.73 221.9 1.01 224.01 1.01C226.12 1.01 227.84 2.73 227.84 4.84ZM224.01 0C221.34 0 219.17 2.17 219.17 4.84C219.17 7.51 221.34 9.68 224.01 9.68C226.68 9.68 228.85 7.51 228.85 4.84C228.85 2.17 226.68 0 224.01 0ZM222.03 2.06H224.13C225.24 2.06 226.17 2.44 226.17 3.7C226.17 4.46 225.76 5.05 225 5.18L226.38 7.47H224.95L223.82 5.3H223.23V7.47H222.04V2.06H222.03ZM223.22 4.3H223.92C224.36 4.3 224.92 4.29 224.92 3.7C224.92 3.16 224.43 3.07 223.99 3.07H223.21V4.3H223.22Z" fill="#054798"/>
</g>
</g>
<defs>
<clipPath id="clip0_1_2">
<rect width="228.85" height="76.14" fill="white"/>
</clipPath>
</defs>
</svg>
